<svg version="1.1" xmlns="http://www.w3.org/2000/svg" xmlns:xlink="http://www.w3.org/1999/xlink" x="0px" y="0px" viewBox="0 0 96 96" enable-background="new 0 0 96 96" xml:space="preserve">
  <g transform="scale(0.096)">
    <path d="M939.5,990h-879C35.1,990,10,964.8,10,939.5V181.8c0-25.4,25.1-50.5,50.5-50.5h90.9v50.5c0,59.2,41.8,101,101,101c59.2,0,109.7-45.1,109.7-104.3l1.4-47.2h272.8v50.5c0,59.2,51.9,101,111.1,101c59.2,0,101-41.8,101-101v-50.5h101c25.4,0,40.4,21.8,40.4,47.2l0,761C990,964.8,964.8,990,939.5,990L939.5,990z M899.1,373.7H100.9v525.4h798.1V373.7L899.1,373.7z M747.5,222.2c-25.4,0-40.4-15-40.4-40.4V50.4c0-25.4,15-40.4,40.4-40.4c25.4,0,40.4,15,40.4,40.4v131.3C787.9,207.1,772.9,222.2,747.5,222.2L747.5,222.2z  M256,222.2c-25.4,0-40.4-15-40.4-40.4V50.4c0-25.4,15-40.4,40.4-40.4c25.4,0,40.4,15,40.4,40.4v131.3C296.4,207.1,281.3,222.2,256,222.2L256,222.2z " />
  </g>
  <g transform="rotate(18) translate(35,74) scale(0.0225,-0.0225)">
    <path d="M1905 2531 c-38 -10 -115 -32 -170 -49 -55 -17 -142 -35 -194 -41 -113 -12 -162 -38 -230 -121 l-45 -55 120 -7 c133 -7 225 -29 343 -84 97 -45 141 -79 141 -108 0 -31 -20 -47 -69 -53 -56 -8 -150 11 -368 72 -260 73 -249 72 -346 42 -45 -14 -122 -38 -171 -52 -79 -24 -95 -33 -142 -79 -39 -40 -56 -67 -68 -106 -21 -72 -21 -94 2 -85 9 5 41 13 71 18 149 29 518 -86 614 -192 42 -47 45 -63 17 -91 -41 -41 -148 -25 -503 74 -109 31 -227 58 -262 62 -61 6 -65 5 -156 -42 -163 -86 -239 -183 -256 -328 -6 -46 -5 -49 13 -41 93 40 131 47 215 41 137 -9 293 -67 374 -137 41 -37 44 -62 10 -85 -22 -14 -44 -16 -153 -11 -70 3 -194 17 -277 31 -242 40 -224 42 -262 -29 -42 -79 -109 -284 -128 -392 -18 -101 -20 -280 -4 -355 26 -123 126 -278 198 -308 19 -8 62 -11 118 -8 114 5 200 41 367 152 246 164 476 366 906 796 525 525 771 821 893 1077 37 78 42 98 45 176 2 48 1 99 -2 113 -17 65 -152 170 -264 204 -84 26 -274 27 -377 1z" />
  </g>
</svg>
